<svg width="17" height="20" viewBox="0 0 17 20" fill="none" xmlns="http://www.w3.org/2000/svg">
<mask id="path-1-inside-1_23_60" fill="white">
<path d="M3.4 0C5.12914 0 5.99371 2.16 4.77943 3.42C3.55543 4.67 1.45714 3.78 1.45714 2C1.45714 1.46957 1.66184 0.960859 2.02619 0.585786C2.39055 0.210714 2.88472 0 3.4 0ZM1.94286 5H4.85714C5.37242 5 5.86659 5.21071 6.23095 5.58579C6.59531 5.96086 6.8 6.46957 6.8 7V12.5H5.34286V20H1.45714V12.5H0V7C0 6.46957 0.204693 5.96086 0.56905 5.58579C0.933406 5.21071 1.42758 5 1.94286 5ZM17 6H11.1714V8H17M17 9H14.0857V11H17M17 0H11.1714V2H17M17 3H14.0857V5H17M17 12H11.1714V14H17M17 18H11.1714V20H17M17 15H14.0857V17H17"/>
</mask>
<path d="M3.4 0C5.12914 0 5.99371 2.16 4.77943 3.42C3.55543 4.67 1.45714 3.78 1.45714 2C1.45714 1.46957 1.66184 0.960859 2.02619 0.585786C2.39055 0.210714 2.88472 0 3.4 0ZM1.94286 5H4.85714C5.37242 5 5.86659 5.21071 6.23095 5.58579C6.59531 5.96086 6.8 6.46957 6.8 7V12.5H5.34286V20H1.45714V12.5H0V7C0 6.46957 0.204693 5.96086 0.56905 5.58579C0.933406 5.21071 1.42758 5 1.94286 5ZM17 6H11.1714V8H17M17 9H14.0857V11H17M17 0H11.1714V2H17M17 3H14.0857V5H17M17 12H11.1714V14H17M17 18H11.1714V20H17M17 15H14.0857V17H17" fill="black"/>
<path d="M3.4 0V-1V0ZM4.77943 3.42L5.49395 4.11966L5.49948 4.11392L4.77943 3.42ZM1.94286 5V4V5ZM4.85714 5V4V5ZM6.8 12.5V13.5H7.8V12.5H6.8ZM5.34286 12.5V11.5H4.34286V12.5H5.34286ZM5.34286 20V21H6.34286V20H5.34286ZM1.45714 20H0.457143V21H1.45714V20ZM1.45714 12.5H2.45714V11.5H1.45714V12.5ZM0 12.5H-1V13.5H0V12.5ZM11.1714 6V5H10.1714V6H11.1714ZM11.1714 8H10.1714V9H11.1714V8ZM14.0857 9V8H13.0857V9H14.0857ZM14.0857 11H13.0857V12H14.0857V11ZM11.1714 0V-1H10.1714V0H11.1714ZM11.1714 2H10.1714V3H11.1714V2ZM14.0857 3V2H13.0857V3H14.0857ZM14.0857 5H13.0857V6H14.0857V5ZM11.1714 12V11H10.1714V12H11.1714ZM11.1714 14H10.1714V15H11.1714V14ZM11.1714 18V17H10.1714V18H11.1714ZM11.1714 20H10.1714V21H11.1714V20ZM14.0857 15V14H13.0857V15H14.0857ZM14.0857 17H13.0857V18H14.0857V17ZM3.4 1C4.18068 1 4.7081 2.05294 4.05938 2.72608L5.49948 4.11392C7.27933 2.26707 6.07761 -1 3.4 -1V1ZM4.06493 2.72036C3.5057 3.29147 2.45714 2.93855 2.45714 2H0.457143C0.457143 4.62145 3.60516 6.04853 5.49393 4.11964L4.06493 2.72036ZM2.45714 2C2.45714 1.72558 2.56331 1.46803 2.74347 1.28257L1.30891 -0.110999C0.760359 0.453689 0.457143 1.21355 0.457143 2H2.45714ZM2.74347 1.28257C2.92267 1.0981 3.15945 1 3.4 1V-1C2.61 -1 1.85842 -0.676672 1.30891 -0.110999L2.74347 1.28257ZM1.94286 6H4.85714V4H1.94286V6ZM4.85714 6C5.0977 6 5.33447 6.0981 5.51367 6.28257L6.94823 4.889C6.39872 4.32333 5.64714 4 4.85714 4V6ZM5.51367 6.28257C5.69383 6.46803 5.8 6.72558 5.8 7H7.8C7.8 6.21355 7.49678 5.45369 6.94823 4.889L5.51367 6.28257ZM5.8 7V12.5H7.8V7H5.8ZM6.8 11.5H5.34286V13.5H6.8V11.5ZM4.34286 12.5V20H6.34286V12.5H4.34286ZM5.34286 19H1.45714V21H5.34286V19ZM2.45714 20V12.5H0.457143V20H2.45714ZM1.45714 11.5H0V13.5H1.45714V11.5ZM1 12.5V7H-1V12.5H1ZM1 7C1 6.72558 1.10617 6.46803 1.28633 6.28257L-0.14823 4.889C-0.696784 5.45369 -1 6.21355 -1 7H1ZM1.28633 6.28257C1.46553 6.0981 1.7023 6 1.94286 6V4C1.15286 4 0.401281 4.32333 -0.14823 4.889L1.28633 6.28257ZM17 5H11.1714V7H17V5ZM10.1714 6V8H12.1714V6H10.1714ZM11.1714 9H17V7H11.1714V9ZM17 8H14.0857V10H17V8ZM13.0857 9V11H15.0857V9H13.0857ZM14.0857 12H17V10H14.0857V12ZM17 -1H11.1714V1H17V-1ZM10.1714 0V2H12.1714V0H10.1714ZM11.1714 3H17V1H11.1714V3ZM17 2H14.0857V4H17V2ZM13.0857 3V5H15.0857V3H13.0857ZM14.0857 6H17V4H14.0857V6ZM17 11H11.1714V13H17V11ZM10.1714 12V14H12.1714V12H10.1714ZM11.1714 15H17V13H11.1714V15ZM17 17H11.1714V19H17V17ZM10.1714 18V20H12.1714V18H10.1714ZM11.1714 21H17V19H11.1714V21ZM17 14H14.0857V16H17V14ZM13.0857 15V17H15.0857V15H13.0857ZM14.0857 18H17V16H14.0857V18Z" fill="#E4DDED" mask="url(#path-1-inside-1_23_60)"/>
</svg>
