<svg width="30" height="30" viewBox="0 0 30 30" fill="none" xmlns="http://www.w3.org/2000/svg">
<g id="lock 1">
<path id="Vector" d="M20.4 13.8H19.2V11.4C19.2 9.06 17.34 7.2 15 7.2C12.66 7.2 10.8 9.06 10.8 11.4V13.8H9.59998V11.4C9.59998 8.4 12 6 15 6C18 6 20.4 8.4 20.4 11.4V13.8Z" fill="#E4DDED"/>
<path id="Vector_2" d="M19.8 24H10.2C9.18002 24 8.40002 23.22 8.40002 22.2V15C8.40002 13.98 9.18002 13.2 10.2 13.2H19.8C20.82 13.2 21.6 13.98 21.6 15V22.2C21.6 23.22 20.82 24 19.8 24ZM10.2 14.4C9.84002 14.4 9.60002 14.64 9.60002 15V22.2C9.60002 22.56 9.84002 22.8 10.2 22.8H19.8C20.16 22.8 20.4 22.56 20.4 22.2V15C20.4 14.64 20.16 14.4 19.8 14.4H10.2Z" fill="#E4DDED"/>
<path id="Vector_3" d="M15 18C15.6627 18 16.2 17.4627 16.2 16.8C16.2 16.1372 15.6627 15.6 15 15.6C14.3372 15.6 13.8 16.1372 13.8 16.8C13.8 17.4627 14.3372 18 15 18Z" fill="#E4DDED"/>
<path id="Vector_4" d="M15.3 16.8H14.7L14.1 20.4H15.9L15.3 16.8Z" fill="#E4DDED"/>
</g>
</svg>
