<svg width="31" height="35" viewBox="0 0 31 35" fill="none" xmlns="http://www.w3.org/2000/svg">
<path d="M26.6396 28.1313L22.3286 23.1875C23.7195 21.1494 24.4742 18.6326 24.4714 16.0417C24.4714 13.7342 23.8765 11.4786 22.7619 9.56002C21.6474 7.64145 20.0632 6.1461 18.2097 5.26308C16.3562 4.38005 14.3167 4.14902 12.349 4.59918C10.3814 5.04934 8.57396 6.16048 7.15536 7.79209C5.73676 9.42371 4.77069 11.5025 4.3793 13.7656C3.98791 16.0287 4.18878 18.3745 4.95652 20.5063C5.72426 22.6381 7.02438 24.4602 8.69247 25.7421C10.3606 27.0241 12.3217 27.7083 14.3279 27.7083C16.5806 27.7116 18.7688 26.8435 20.5408 25.2438L24.8391 30.2021C24.957 30.3388 25.0972 30.4473 25.2518 30.5213C25.4063 30.5953 25.572 30.6335 25.7394 30.6335C25.9068 30.6335 26.0725 30.5953 26.227 30.5213C26.3815 30.4473 26.5217 30.3388 26.6396 30.2021C26.7584 30.0665 26.8528 29.9052 26.9172 29.7275C26.9815 29.5498 27.0147 29.3592 27.0147 29.1667C27.0147 28.9742 26.9815 28.7835 26.9172 28.6058C26.8528 28.4281 26.7584 28.2668 26.6396 28.1313ZM6.72027 16.0417C6.72027 14.3111 7.16645 12.6194 8.00239 11.1804C8.83833 9.7415 10.0265 8.61999 11.4166 7.95773C12.8067 7.29546 14.3364 7.12218 15.8121 7.4598C17.2878 7.79742 18.6434 8.63078 19.7073 9.85449C20.7713 11.0782 21.4958 12.6373 21.7894 14.3346C22.0829 16.032 21.9323 17.7913 21.3565 19.3902C20.7807 20.989 19.8056 22.3556 18.5545 23.317C17.3034 24.2785 15.8326 24.7917 14.3279 24.7917C12.3102 24.7917 10.3752 23.8698 8.9485 22.2289C7.52179 20.5879 6.72027 18.3623 6.72027 16.0417Z" fill="#E4DDED"/>
</svg>
