<svg width="18" height="18" viewBox="0 0 18 18" fill="none" xmlns="http://www.w3.org/2000/svg">
<path d="M10.8462 17.5H7.15385C4.69505 17.5 3.05882 17.0204 2.03322 16.0902C1.0192 15.1705 0.5 13.7154 0.5 11.5116V6.48837C0.5 4.28464 1.0192 2.82947 2.03322 1.90978C3.05882 0.979579 4.69505 0.5 7.15385 0.5H10.8462C13.305 0.5 14.9412 0.979579 15.9668 1.90978C16.9808 2.82947 17.5 4.28464 17.5 6.48837V11.5116C17.5 13.7154 16.9808 15.1705 15.9668 16.0902C14.9412 17.0204 13.305 17.5 10.8462 17.5ZM7.15385 0.755814C4.99929 0.755814 3.39283 1.0973 2.33755 2.05441C1.26831 3.02419 0.884615 4.51309 0.884615 6.48837V11.5116C0.884615 13.4869 1.26831 14.9758 2.33755 15.9456C3.39283 16.9027 4.99929 17.2442 7.15385 17.2442H10.8462C13.0007 17.2442 14.6072 16.9027 15.6624 15.9456C16.7317 14.9758 17.1154 13.4869 17.1154 11.5116V6.48837C17.1154 4.51309 16.7317 3.02419 15.6624 2.05441C14.6072 1.0973 13.0007 0.755814 10.8462 0.755814H7.15385Z" fill="#292D32" stroke="#E4DDED"/>
<path d="M14.3073 5.41681L13.9935 5.80606C14.0224 5.82935 14.0342 5.85524 14.0375 5.87615C14.0408 5.89636 14.0374 5.91775 14.0229 5.9396C14.0227 5.93993 14.0225 5.94025 14.0223 5.94058L12.0139 8.86504C12.0137 8.86533 12.0135 8.86562 12.0133 8.86592C11.9928 8.89492 11.9518 8.92896 11.8765 8.946C11.8524 8.94774 11.8331 8.95008 11.8228 8.95134L11.8207 8.95159L11.8197 8.95171C11.7719 8.94865 11.7207 8.92997 11.6813 8.90027C10.1503 7.66772 7.84256 7.66899 6.3132 8.9041L6.3131 8.90398L6.30346 8.91217C6.2814 8.93092 6.22559 8.95906 6.12443 8.94741C6.06404 8.93962 6.01591 8.90838 5.986 8.86597L3.97635 5.9396C3.96106 5.91653 3.95886 5.89713 3.96166 5.87985C3.96463 5.86158 3.97589 5.83237 4.0106 5.80218C6.85531 3.51735 11.1509 3.51874 13.9939 5.80636L14.3073 5.41681ZM14.3073 5.41681C11.2796 2.98053 6.71964 2.98053 3.69195 5.41681L14.4365 6.22053C14.6119 5.961 14.5565 5.61774 14.3073 5.41681ZM11.3909 8.34545L11.791 8.57486L12.0519 8.19455L13.3442 6.31083L13.6294 5.89511L13.2114 5.61335C10.7071 3.92556 7.28293 3.92556 4.77866 5.61335L4.3606 5.89511L4.6458 6.31083L5.93812 8.19455L6.19978 8.57595L6.60037 8.34474C7.33147 7.92275 8.15812 7.71681 8.99962 7.71681C9.8386 7.71681 10.6662 7.92994 11.3909 8.34545Z" fill="#292D32" stroke="#E4DDED"/>
</svg>
