<svg width="38" height="38" viewBox="0 0 42 42" fill="none" xmlns="http://www.w3.org/2000/svg">
<path d="M22.8034 3.3113C21.7915 2.35457 20.2085 2.35457 19.1966 3.3113L6.48239 15.3321C5.69573 16.0758 5.25 17.1107 5.25 18.1932V32.8125C5.25 34.987 7.01287 36.75 9.1875 36.75H13.125C15.2996 36.75 17.0625 34.987 17.0625 32.8125V26.25C17.0625 25.5252 17.6501 24.9376 18.375 24.9376H23.625C24.3499 24.9376 24.9375 25.5252 24.9375 26.25V32.8125C24.9375 34.987 26.7004 36.75 28.875 36.75H32.8125C34.9871 36.75 36.75 34.987 36.75 32.8125V18.1932C36.75 17.1107 36.3043 16.0758 35.5176 15.3321L22.8034 3.3113Z"
    fill="rgb(23, 43, 96)" fill-opacity="0.85"/>
</svg>
